<?xml version="1.0" encoding="UTF-8" standalone="no"?>
<!-- Created with Inkscape (http://www.inkscape.org/) -->

<svg
   xmlns:dc="http://purl.org/dc/elements/1.1/"
   xmlns:cc="http://creativecommons.org/ns#"
   xmlns:rdf="http://www.w3.org/1999/02/22-rdf-syntax-ns#"
   xmlns:svg="http://www.w3.org/2000/svg"
   xmlns="http://www.w3.org/2000/svg"
   xmlns:sodipodi="http://sodipodi.sourceforge.net/DTD/sodipodi-0.dtd"
   xmlns:inkscape="http://www.inkscape.org/namespaces/inkscape"
   width="112.32079mm"
   height="74.630211mm"
   viewBox="0 0 397.98704 264.43775"
   id="svg2"
   version="1.1"
   inkscape:version="0.91 r13725"
   sodipodi:docname="loading.svg">
  <defs
     id="defs4">
    <inkscape:path-effect
       is_visible="true"
       id="path-effect4280"
       effect="spiro" />
  </defs>
  <sodipodi:namedview
     id="base"
     pagecolor="#ffffff"
     bordercolor="#666666"
     borderopacity="1.0"
     inkscape:pageopacity="0.0"
     inkscape:pageshadow="2"
     inkscape:zoom="1.4"
     inkscape:cx="190.94403"
     inkscape:cy="114.35997"
     inkscape:document-units="px"
     inkscape:current-layer="layer1-0"
     showgrid="false"
     fit-margin-top="0"
     fit-margin-left="0"
     fit-margin-right="0"
     fit-margin-bottom="0"
     inkscape:window-width="1366"
     inkscape:window-height="715"
     inkscape:window-x="-8"
     inkscape:window-y="-8"
     inkscape:window-maximized="1" />
  <metadata
     id="metadata7">
    <rdf:RDF>
      <cc:Work
         rdf:about="">
        <dc:format>image/svg+xml</dc:format>
        <dc:type
           rdf:resource="http://purl.org/dc/dcmitype/StillImage" />
        <dc:title />
      </cc:Work>
    </rdf:RDF>
  </metadata>
  <g
     inkscape:label="Layer 1"
     inkscape:groupmode="layer"
     id="layer1"
     transform="translate(-153.57867,-294.18152)">
    <g
       id="g4170"
       transform="translate(-31.428571,-102.85714)">
      <g
         inkscape:label="Layer 1"
         id="layer1-0"
         transform="matrix(0.31095441,0,0,0.27828923,255.87277,388.32413)">
        <path
           style="opacity:1;fill:none;fill-rule:evenodd;stroke:#000000;stroke-width:2.944906;stroke-linecap:butt;stroke-linejoin:round;stroke-miterlimit:4;stroke-dasharray:none;stroke-opacity:1"
           d="m 285.29189,125.46591 c 0,0 36.52727,118.51055 14.26034,170.24945 -48.04058,111.62591 -74.84238,431.95609 -161.5912,482.39158 -86.748824,50.43549 -88.054113,42.22831 -124.344536,44.00257 -43.113946,2.10787 -82.023267,-34.767 -124.819454,-28.83284 -26.39101,3.65938 -34.47773,30.52025 -54.11159,49.10298 -15.28722,14.46881 -66.37748,15.85931 -60.675,36.30618 10.06267,36.08082 127.868077,-6.87202 108.15827,57.47124 -22.9594,74.95173 126.3734749,-4.84234 202.596049,-1.69534 46.051101,1.90131 124.201751,46.96222 170.288441,45.57504 57.72438,-1.73746 108.19179,-16.20994 165.51705,-23.65233 31.5235,-4.09261 61.04198,-20.69158 92.72996,-22.94617 40.33936,-2.87013 90.37344,18.38786 120.60722,12.23073 30.23377,-6.15711 35.41636,-34.76607 56.1756,-30.69685 23.57153,4.62047 48.82898,0.45589 55.56675,-24.69302 C 772.7224,789.22984 635.70503,672.36408 549.0454,579.33275 431.70668,453.36663 403.06565,287.39418 403.06565,287.39418 c 0,0 -9.52358,-46.4694 -4.97501,-70.53183 4.54858,-24.06241 28.78982,-76.21522 28.78982,-76.21522 0,0 -0.80026,-37.20889 -14.32636,-44.208152 -13.5261,-6.999259 -36.346,17.842832 -44.38956,18.442412 0,0 -61.64914,-45.659193 -82.87265,10.58452 z"
           id="path5766"
           inkscape:connector-curvature="0"
           sodipodi:nodetypes="cszssssssssszsssczcscc" />
      </g>
      <g
         inkscape:label="Layer 1"
         id="layer1-9"
         transform="translate(284.66802,229.82137)">
        <g
           id="g4424">
          <path
             sodipodi:nodetypes="cccc"
             inkscape:connector-curvature="0"
             id="path4288"
             d="m 163.96629,199.37642 c -11.46846,4.51885 -16.95592,13.17838 -19.69797,23.73859 1.38151,42.93148 47.14045,85.86297 70.71068,128.79445 -18.16887,-50.96913 -49.55971,-103.3549 -51.01271,-152.53304 z"
             style="fill:none;fill-rule:evenodd;stroke:#000000;stroke-width:1px;stroke-linecap:butt;stroke-linejoin:miter;stroke-opacity:1" />
          <path
             sodipodi:nodetypes="cccc"
             inkscape:connector-curvature="0"
             id="path4288-7"
             d="m 278.12623,198.27512 c 11.46846,4.51885 16.95592,13.17838 19.69797,23.73859 -1.38151,42.93148 -47.14045,85.86297 -70.71068,128.79445 18.16887,-50.96913 49.55971,-103.3549 51.01271,-152.53304 z"
             style="fill:none;fill-rule:evenodd;stroke:#000000;stroke-width:1px;stroke-linecap:butt;stroke-linejoin:miter;stroke-opacity:1" />
          <path
             inkscape:connector-curvature="0"
             id="path4349"
             d="m 220.34159,213.9414 c -1.52108,0 -2.85721,1.23532 -2.85721,2.85715 0,1.62182 1.33613,2.85714 2.85721,2.85714 1.52108,-1e-5 2.85791,-1.23532 2.85791,-2.85714 0,-1.62183 -1.33683,-2.85715 -2.85791,-2.85715 z m 0,1.90476 c 0.6532,0 1.07996,0.47026 1.07996,0.95239 0,0.48211 -0.42676,0.95238 -1.07996,0.95238 -0.6532,0 -1.07927,-0.47027 -1.07927,-0.95238 0,-0.48213 0.42607,-0.95239 1.07927,-0.95239 z"
             style="color:#000000;font-style:normal;font-variant:normal;font-weight:normal;font-stretch:normal;font-size:medium;line-height:normal;font-family:sans-serif;text-indent:0;text-align:start;text-decoration:none;text-decoration-line:none;text-decoration-style:solid;text-decoration-color:#000000;letter-spacing:normal;word-spacing:normal;text-transform:none;direction:ltr;block-progression:tb;writing-mode:lr-tb;baseline-shift:baseline;text-anchor:start;white-space:normal;clip-rule:nonzero;display:inline;overflow:visible;visibility:visible;opacity:1;isolation:auto;mix-blend-mode:normal;color-interpolation:sRGB;color-interpolation-filters:linearRGB;solid-color:#000000;solid-opacity:1;fill:#000000;fill-opacity:1;fill-rule:nonzero;stroke:none;stroke-width:5;stroke-linecap:round;stroke-linejoin:miter;stroke-miterlimit:4;stroke-dasharray:none;stroke-dashoffset:0;stroke-opacity:1;color-rendering:auto;image-rendering:auto;shape-rendering:auto;text-rendering:auto;enable-background:accumulate" />
          <path
             inkscape:connector-curvature="0"
             id="path4349-8"
             d="m 220.3412,249.65606 c -1.52108,0 -2.85721,1.23532 -2.85721,2.85715 0,1.62182 1.33613,2.85714 2.85721,2.85714 1.52108,-1e-5 2.85791,-1.23532 2.85791,-2.85714 0,-1.62183 -1.33683,-2.85715 -2.85791,-2.85715 z m 0,1.90476 c 0.6532,0 1.07996,0.47026 1.07996,0.95239 0,0.48211 -0.42676,0.95238 -1.07996,0.95238 -0.6532,0 -1.07927,-0.47027 -1.07927,-0.95238 0,-0.48213 0.42607,-0.95239 1.07927,-0.95239 z"
             style="color:#000000;font-style:normal;font-variant:normal;font-weight:normal;font-stretch:normal;font-size:medium;line-height:normal;font-family:sans-serif;text-indent:0;text-align:start;text-decoration:none;text-decoration-line:none;text-decoration-style:solid;text-decoration-color:#000000;letter-spacing:normal;word-spacing:normal;text-transform:none;direction:ltr;block-progression:tb;writing-mode:lr-tb;baseline-shift:baseline;text-anchor:start;white-space:normal;clip-rule:nonzero;display:inline;overflow:visible;visibility:visible;opacity:1;isolation:auto;mix-blend-mode:normal;color-interpolation:sRGB;color-interpolation-filters:linearRGB;solid-color:#000000;solid-opacity:1;fill:#000000;fill-opacity:1;fill-rule:nonzero;stroke:none;stroke-width:5;stroke-linecap:round;stroke-linejoin:miter;stroke-miterlimit:4;stroke-dasharray:none;stroke-dashoffset:0;stroke-opacity:1;color-rendering:auto;image-rendering:auto;shape-rendering:auto;text-rendering:auto;enable-background:accumulate" />
          <path
             inkscape:connector-curvature="0"
             id="path4349-8-9"
             d="m 220.69835,289.65607 c -1.52108,0 -2.85721,1.23532 -2.85721,2.85715 0,1.62182 1.33613,2.85714 2.85721,2.85714 1.52108,-1e-5 2.85791,-1.23532 2.85791,-2.85714 0,-1.62183 -1.33683,-2.85715 -2.85791,-2.85715 z m 0,1.90476 c 0.6532,0 1.07996,0.47026 1.07996,0.95239 0,0.48211 -0.42676,0.95238 -1.07996,0.95238 -0.6532,0 -1.07927,-0.47027 -1.07927,-0.95238 0,-0.48213 0.42607,-0.95239 1.07927,-0.95239 z"
             style="color:#000000;font-style:normal;font-variant:normal;font-weight:normal;font-stretch:normal;font-size:medium;line-height:normal;font-family:sans-serif;text-indent:0;text-align:start;text-decoration:none;text-decoration-line:none;text-decoration-style:solid;text-decoration-color:#000000;letter-spacing:normal;word-spacing:normal;text-transform:none;direction:ltr;block-progression:tb;writing-mode:lr-tb;baseline-shift:baseline;text-anchor:start;white-space:normal;clip-rule:nonzero;display:inline;overflow:visible;visibility:visible;opacity:1;isolation:auto;mix-blend-mode:normal;color-interpolation:sRGB;color-interpolation-filters:linearRGB;solid-color:#000000;solid-opacity:1;fill:#000000;fill-opacity:1;fill-rule:nonzero;stroke:none;stroke-width:5;stroke-linecap:round;stroke-linejoin:miter;stroke-miterlimit:4;stroke-dasharray:none;stroke-dashoffset:0;stroke-opacity:1;color-rendering:auto;image-rendering:auto;shape-rendering:auto;text-rendering:auto;enable-background:accumulate" />
          <path
             sodipodi:nodetypes="czzcc"
             inkscape:connector-curvature="0"
             id="path4396"
             d="m 228.48979,180.56233 c 0,0 40.6041,-23.12016 31.94607,-7.32361 -8.65803,15.79656 6.7371,19.56097 -0.25254,24.62247 -6.98964,5.06151 -31.06219,-10.35406 -31.06219,-10.35406 z"
             style="fill:none;fill-rule:evenodd;stroke:#000000;stroke-width:1px;stroke-linecap:butt;stroke-linejoin:miter;stroke-opacity:1" />
          <path
             sodipodi:nodetypes="czzcc"
             inkscape:connector-curvature="0"
             id="path4396-4"
             d="m 210.78384,180.8516 c 0,0 -40.6041,-23.12016 -31.94607,-7.32361 8.65803,15.79656 -6.72006,19.55503 0.25254,24.62247 6.9726,5.06744 23.5316,-7.73472 31.06219,-10.35406 z"
             style="fill:none;fill-rule:evenodd;stroke:#000000;stroke-width:1px;stroke-linecap:butt;stroke-linejoin:miter;stroke-opacity:1" />
          <path
             sodipodi:nodetypes="ccccccccc"
             inkscape:connector-curvature="0"
             id="path4422"
             d="m 210.87727,180.54891 1.60714,-2.67857 13.92857,0.35714 2.14286,2.14286 0.53571,7.5 -1.60714,2.14286 -16.42857,-0.17857 -1.07143,-2.14286 z"
             style="fill:none;fill-rule:evenodd;stroke:#000000;stroke-width:1px;stroke-linecap:butt;stroke-linejoin:miter;stroke-opacity:1" />
        </g>
      </g>
    </g>
  </g>
</svg>
