<?xml version="1.0" encoding="iso-8859-1"?>
<!-- Generator: Adobe Illustrator 19.0.0, SVG Export Plug-In . SVG Version: 6.00 Build 0)  -->
<svg version="1.1" id="Capa_1" xmlns="http://www.w3.org/2000/svg" xmlns:xlink="http://www.w3.org/1999/xlink" x="0px" y="0px"
	 viewBox="0 0 512 512" style="enable-background:new 0 0 512 512;" xml:space="preserve">
<g transform="matrix(1.25 0 0 -1.25 0 45)">
	<g>
		<g>
			<path style="fill:#55ACEE;" d="M255.09-98.793l40.732,112.037c0,0-4.528-0.023-11.378-0.387V36h-22.756V10.753
				C235.85,7.305,204.8-0.944,204.8-20.889c0,19.945-31.05,28.194-56.889,31.642V36h-22.756V12.858
				c-6.838,0.364-11.378,0.387-11.378,0.387l40.744-112.037L11.378-255.76c0,0,68.267-117.84,193.422-117.84
				s193.422,117.84,193.422,117.84L255.09-98.793z"/>
			<path style="fill:#BBDDF5;" d="M261.689-111.877H147.911v22.756h113.778V-111.877z"/>
			<g>
				<path style="fill:#3B88C3;" d="M170.667-111.877c0,0-76.618-92.228-57.469-102.468
					C132.358-224.597,170.667-111.877,170.667-111.877"/>
				<path style="fill:#3B88C3;" d="M240.071-111.877c0,0,76.618-92.217,57.469-102.48
					C278.38-224.597,240.071-111.877,240.071-111.877"/>
				<path style="fill:#3B88C3;" d="M204.8-111.877c0,0-22.756-125.156,0-125.156S204.8-111.877,204.8-111.877"/>
			</g>
		</g>
	</g>
</g>
<g>
</g>
<g>
</g>
<g>
</g>
<g>
</g>
<g>
</g>
<g>
</g>
<g>
</g>
<g>
</g>
<g>
</g>
<g>
</g>
<g>
</g>
<g>
</g>
<g>
</g>
<g>
</g>
<g>
</g>
</svg>
