<?xml version="1.0" encoding="iso-8859-1"?>
<!-- Generator: Adobe Illustrator 19.0.0, SVG Export Plug-In . SVG Version: 6.00 Build 0)  -->
<svg version="1.1" id="Capa_1" xmlns="http://www.w3.org/2000/svg" xmlns:xlink="http://www.w3.org/1999/xlink" x="0px" y="0px"
	 viewBox="0 0 512 512" style="enable-background:new 0 0 512 512;" xml:space="preserve">
<path style="fill:#172B2E;" d="M452.035,95.944l-5.985-23.426c-3.96-15.499-15.865-27.721-31.254-32.087l0,0
	c-44.856-12.724-91.258-31.37-137.884-31.37h-20.868h-0.088h-20.868c-46.626,0-93.027,18.646-137.883,31.371l0,0
	c-15.39,4.365-27.296,16.587-31.255,32.086l-5.985,23.426C30.756,210.278,30.39,330.074,58.9,444.583L75.685,512h360.63
	l16.785-67.417C481.61,330.074,481.244,210.278,452.035,95.944z"/>
<path style="fill:#295561;" d="M256,9.061h-20.912c-46.626,0-93.027,18.646-137.883,31.371l0,0
	c-15.39,4.365-27.296,16.587-31.255,32.086l-5.985,23.426C30.756,210.278,30.39,330.074,58.9,444.583L75.685,512h180.303L256,9.061z
	"/>
<path style="fill:#F0B400;" d="M417.303,148.354l-21.21-24.16c-1.929-2.198-4.711-3.457-7.635-3.457s-5.706,1.259-7.635,3.457
	l-21.209,24.16c-1.627,1.854-2.524,4.236-2.524,6.702v24.996c0,5.611,4.548,10.159,10.159,10.159h42.419
	c5.611,0,10.159-4.548,10.159-10.159v-24.996C419.828,152.589,418.93,150.207,417.303,148.354z"/>
<path style="fill:#FFD23D;" d="M388.459,120.736c-2.924,0-5.706,1.259-7.635,3.457l-21.209,24.16
	c-1.627,1.854-2.524,4.236-2.524,6.702v24.996c0,5.611,4.548,10.159,10.159,10.159h21.21L388.459,120.736z"/>
<path style="fill:#295561;" d="M392.809,267.226c-5.586-0.508-10.525,3.623-11.026,9.211L360.659,512h20.4l20.962-233.748
	C402.522,272.664,398.398,267.727,392.809,267.226z"/>
<path style="fill:#172B2E;" d="M119.191,267.226c-5.589,0.501-9.712,5.438-9.211,11.026L130.941,512h20.4l-21.125-235.563
	C129.715,270.849,124.775,266.727,119.191,267.226z"/>
<path style="fill:#295561;" d="M419.324,181.388h-61.73c-5.611,0-10.159,4.548-10.159,10.159s4.548,10.159,10.159,10.159h61.73
	c5.611,0,10.159-4.548,10.159-10.159S424.935,181.388,419.324,181.388z"/>
<path style="fill:#AEE3E8;" d="M312.556,0L312.556,0C294.408,7.274,275.2,10.883,256,10.832C236.8,10.883,217.592,7.274,199.444,0
	l0,0L166.95,19.585l9.789,59.735c9.281,56.638,30.999,110.515,63.591,157.756L256,256.9l15.67-19.824
	c32.592-47.241,54.31-101.118,63.591-157.756l9.789-59.735L312.556,0z"/>
<path style="fill:#F5F9FA;" d="M256,10.832C236.8,10.883,217.592,7.274,199.444,0l0,0L166.95,19.585l9.789,59.735
	c9.281,56.638,30.999,110.515,63.591,157.756L256,256.9V10.832z"/>
<polygon style="fill:#FF7224;" points="295.252,219.559 256,260.873 216.748,219.559 241.132,42.33 270.868,42.33 "/>
<polygon style="fill:#FF9B30;" points="256,260.873 216.748,219.559 241.132,42.33 255.988,42.33 "/>
<path style="fill:#D14A19;" d="M226.428,14.329v19.879c0,7.21,4.42,13.682,11.135,16.305l12.067,4.714c4.096,1.6,8.643,1.6,12.739,0
	l12.067-4.714c6.715-2.623,11.135-9.095,11.135-16.305V14.329c0-4.295-3.481-7.776-7.776-7.776h-43.592
	C229.909,6.553,226.428,10.034,226.428,14.329z"/>
<path style="fill:#FF7224;" d="M226.428,14.329v19.879c0,7.21,4.42,13.682,11.135,16.305l12.067,4.714
	c2.044,0.799,4.201,1.199,6.358,1.2V6.553h-21.784C229.909,6.553,226.428,10.034,226.428,14.329z"/>
<path style="fill:#172B2E;" d="M325.753,7.954c-0.175,0.617-0.298,1.257-0.354,1.92l-7.784,91.738
	c-4.618,54.423-25.86,106.235-61.615,150.563c-35.756-44.328-56.998-96.141-61.615-150.563l-7.784-91.738
	c-0.056-0.663-0.179-1.303-0.354-1.92L166.95,19.585l7.189,83.745c5.306,62.536,30.967,121.779,74.207,171.326
	c1.929,2.211,4.72,3.479,7.654,3.479c2.934,0,5.725-1.268,7.654-3.479c43.241-49.547,68.901-108.791,74.207-171.326l7.189-83.745
	L325.753,7.954z"/>
<path style="fill:#295561;" d="M256,252.176c-35.756-44.328-56.998-96.141-61.615-150.563l-7.784-91.738
	c-0.056-0.663-0.179-1.303-0.354-1.92l-19.297,11.63l7.189,83.745c5.306,62.536,30.967,121.779,74.207,171.326
	c1.929,2.211,4.72,3.479,7.654,3.479V252.176z"/>
<g>
</g>
<g>
</g>
<g>
</g>
<g>
</g>
<g>
</g>
<g>
</g>
<g>
</g>
<g>
</g>
<g>
</g>
<g>
</g>
<g>
</g>
<g>
</g>
<g>
</g>
<g>
</g>
<g>
</g>
</svg>
